HIERARCHY
ROOT Hips
{
	OFFSET 0.000000 0.000000 0.000000 
	CHANNELS 6 Xposition Yposition Zposition Zrotation Yrotation Xrotation
	JOINT LeftUpLeg
	{
		OFFSET 1.363060 -1.794630 0.839290 
		CHANNELS 3 Zrotation Yrotation Xrotation
		JOINT LeftLeg
		{
			OFFSET 2.448110 -6.726130 0.000000 
			CHANNELS 3 Zrotation Yrotation Xrotation
			JOINT LeftFoot
			{
				OFFSET 2.562200 -7.039590 0.000000 
				CHANNELS 3 Zrotation Yrotation Xrotation
				JOINT LeftToeBase
				{
					OFFSET 0.157640 -0.433110 2.322550 
					CHANNELS 3 Zrotation Yrotation Xrotation
					End Site
					{
						OFFSET 0.000000 0.000000 0.000000 
					}
				}
			}
		}
	}
	JOINT RightUpLeg
	{
		OFFSET -1.305520 -1.794630 0.839290 
		CHANNELS 3 Zrotation Yrotation Xrotation
		JOINT RightLeg
		{
			OFFSET -2.542530 -6.985550 0.000000 
			CHANNELS 3 Zrotation Yrotation Xrotation
			JOINT RightFoot
			{
				OFFSET -2.568260 -7.056230 0.000000 
				CHANNELS 3 Zrotation Yrotation Xrotation
				JOINT RightToeBase
				{
					OFFSET -0.164730 -0.452590 2.363150 
					CHANNELS 3 Zrotation Yrotation Xrotation
					End Site
					{
						OFFSET 0.000000 0.000000 0.000000 
					}
				}
			}
		}
	}
	JOINT Spine
	{
		OFFSET 0.028270 2.035590 -0.193380 
		CHANNELS 3 Zrotation Yrotation Xrotation
		JOINT Spine1
		{
			OFFSET 0.056720 2.048850 -0.042750 
			CHANNELS 3 Zrotation Yrotation Xrotation
			JOINT Neck1
			{
				OFFSET -0.054170 1.746240 0.172020 
				CHANNELS 3 Zrotation Yrotation Xrotation
				JOINT Head
				{
					OFFSET 0.104070 1.761360 -0.123970 
					CHANNELS 3 Zrotation Yrotation Xrotation
					End Site
					{
						OFFSET 0.000000 0.000000 0.000000 
					}
				}
			}
			JOINT LeftArm
			{
				OFFSET 3.362410 1.200890 -0.311210 
				CHANNELS 3 Zrotation Yrotation Xrotation
				JOINT LeftForeArm
				{
					OFFSET 4.983000 -0.000000 -0.000000 
					CHANNELS 3 Zrotation Yrotation Xrotation
					JOINT LeftHand
					{
						OFFSET 3.483560 -0.000000 -0.000000 
						CHANNELS 3 Zrotation Yrotation Xrotation
						JOINT LeftHandIndex1
						{
							OFFSET 0.715260 -0.000000 -0.000000 
							CHANNELS 3 Zrotation Yrotation Xrotation
							End Site
							{
								OFFSET 0.000000 0.000000 0.000000 
							}
						}
					}
				}
			}
			JOINT RightArm
			{
				OFFSET -3.136600 1.374050 -0.404650 
				CHANNELS 3 Zrotation Yrotation Xrotation
				JOINT RightForeArm
				{
					OFFSET -5.241900 -0.000000 -0.000000 
					CHANNELS 3 Zrotation Yrotation Xrotation
					JOINT RightHand
					{
						OFFSET -3.444170 -0.000000 -0.000000 
						CHANNELS 3 Zrotation Yrotation Xrotation
						JOINT RightHandIndex1
						{
							OFFSET -0.622530 -0.000000 -0.000000 
							CHANNELS 3 Zrotation Yrotation Xrotation
							End Site
							{
								OFFSET 0.000000 0.000000 0.000000 
							}
						}
					}
				}
			}
		}
	}
}
MOTION
Frames: 13
Frame Time: 0.041667
11.240125 17.484406 6.146113 -165.607036 -67.164497 171.116852 -11.151867 -18.847893 -17.862863 0.520525 15.437256 39.816385 4.166990 -28.461037 35.096344 4.972900 13.353200 40.705500 11.902660 14.916115 -24.501515 -3.134577 -16.548486 42.051480 -2.671621 4.549445 3.175987 -1.809100 8.456500 -24.109600 0.504541 4.191586 -4.053937 0.448855 1.364901 -12.149015 8.212080 -13.482864 4.135168 18.758600 -5.577500 2.199000 -61.067171 -14.506365 19.364388 122.172529 -50.406050 -94.889229 2.006530 -1.946679 -55.006615 -7.125000 0.000000 0.000000 73.297209 -40.496289 51.474188 -16.536253 30.722071 -5.825403 -0.250328 1.824242 -9.481905 7.125000 0.000000 0.000000 
11.237361 17.429131 6.087411 -164.217311 -68.713511 169.779540 -10.806168 -19.607902 -17.923141 0.508791 15.524122 39.999880 4.151610 -28.755315 36.906276 5.558300 13.986200 43.182100 11.365000 15.364295 -24.766367 -3.019973 -16.468345 41.693436 -3.096020 5.951097 3.176027 -1.886600 8.625800 -24.631600 0.513518 4.374422 -4.055460 0.531559 1.465199 -12.150525 8.415516 -13.932967 4.002314 18.896400 -5.766000 2.213400 -61.193997 -15.609377 18.331767 123.300680 -49.818214 -95.808560 2.042304 -1.957691 -54.516496 -7.125000 0.000000 0.000000 71.404561 -40.324523 54.624055 -16.163784 30.470131 -5.677274 -0.326539 1.811056 -7.675981 7.125000 0.000000 0.000000 
11.233382 17.374741 6.028488 -162.961045 -70.142026 168.612343 -10.537720 -20.295270 -18.015418 0.493507 15.602756 40.141060 4.173879 -28.854819 38.611160 6.126300 14.549600 45.486500 10.741935 15.838558 -25.091217 -2.931985 -16.416118 41.411273 -3.504282 7.356577 3.189475 -1.948000 8.757000 -25.038100 0.510945 4.597652 -4.059348 0.629331 1.592507 -12.118360 8.621850 -14.389191 3.886303 19.040000 -5.961600 2.245500 -61.352506 -16.626008 17.317535 124.594831 -49.129398 -96.839631 2.078515 -1.959390 -54.724818 -7.125000 0.000000 0.000000 69.468081 -39.990896 57.913712 -15.774443 30.169824 -5.522464 -0.411359 1.798973 -6.213769 7.125000 0.000000 0.000000 
11.227744 17.323004 5.969233 -161.894702 -71.475961 167.639309 -10.370472 -20.933898 -18.100710 0.480935 15.675957 40.252815 4.223547 -28.800630 40.132035 6.645200 15.025700 47.519400 10.045683 16.314709 -25.426781 -2.864644 -16.380582 41.180381 -3.887884 8.736843 3.202656 -1.999000 8.864000 -25.370900 0.488399 4.857038 -4.065405 0.691934 1.736834 -12.075298 8.830055 -14.852364 3.782496 19.183200 -6.165600 2.288300 -61.499613 -17.528862 16.337269 125.993430 -48.356201 -97.933480 2.115403 -1.953729 -55.545520 -7.125000 0.000000 0.000000 67.582060 -39.520916 61.351516 -15.399238 29.838175 -5.365849 -0.502682 1.788523 -5.263130 7.125000 0.000000 0.000000 
11.219674 17.276241 5.910089 -161.058314 -72.739856 166.876168 -10.321632 -21.556856 -18.143067 0.473351 15.743648 40.340258 4.275984 -28.699795 41.358564 7.076900 15.396300 49.164400 9.285218 16.787314 -25.718377 -2.808252 -16.348755 40.969635 -4.248924 10.102437 3.240925 -2.022600 8.912900 -25.523400 0.444511 5.147486 -4.071695 0.703466 1.893240 -12.033058 9.035717 -15.323560 3.685993 19.320600 -6.378300 2.332300 -61.619782 -18.291988 15.397190 127.429910 -47.526854 -99.036629 2.153113 -1.942636 -56.784996 -7.125000 0.000000 0.000000 65.795779 -38.938851 64.927473 -15.059468 29.489685 -5.212034 -0.600430 1.781152 -4.963339 7.125000 0.000000 0.000000 
11.208950 17.235669 5.851166 -160.396979 -73.942649 166.255522 -10.366437 -22.192141 -18.111695 0.465815 15.799955 40.395648 4.326837 -28.576237 42.338695 7.431400 15.684700 50.487700 8.500197 17.260680 -25.926171 -2.753568 -16.311278 40.752257 -4.580408 11.427714 3.309605 -2.015100 8.897500 -25.475200 0.380214 5.480048 -4.074136 0.653188 2.065037 -11.989598 9.237955 -15.824802 3.584615 19.455000 -6.606300 2.374200 -61.714352 -18.919592 14.522423 128.830963 -46.679793 -100.091994 2.191582 -1.929986 -58.184439 -7.125000 0.000000 0.000000 64.165789 -38.267094 68.577012 -14.763014 29.128732 -5.060367 -0.702541 1.778147 -5.324811 7.125000 0.000000 0.000000 
11.195795 17.202283 5.793902 -159.892088 -75.095804 165.760951 -10.489947 -22.860685 -18.007683 0.454033 15.842373 40.412445 4.365003 -28.486014 43.065540 7.700300 15.894300 51.475800 7.698247 17.740067 -26.036497 -2.690880 -16.259090 40.503179 -4.888618 12.748059 3.459158 -1.960000 8.782200 -25.116200 0.295146 5.846786 -4.073935 0.522558 2.244279 -11.950157 9.427996 -16.328828 3.483482 19.577900 -6.837700 2.407300 -61.778712 -19.388657 13.705628 130.140249 -45.857884 -101.058427 2.230601 -1.920643 -59.494010 -7.125000 0.000000 0.000000 62.744537 -37.521188 72.187151 -14.489012 28.732602 -4.901479 -0.810143 1.779061 -6.238062 7.125000 0.000000 0.000000 
11.180428 17.176194 5.738074 -159.502748 -76.190381 165.357589 -10.658108 -23.553262 -17.836402 0.431840 15.865279 40.379093 4.398756 -28.407538 43.641425 7.905700 16.049500 52.222300 6.912204 18.235088 -26.052764 -2.616493 -16.190617 40.210369 -5.161772 14.002425 3.645355 -1.896100 8.646200 -24.694800 0.196581 6.247267 -4.070321 0.336992 2.433827 -11.912159 9.596304 -16.840862 3.377519 19.675200 -7.071800 2.428000 -61.827800 -19.693292 12.944773 131.327051 -45.094052 -101.913229 2.270004 -1.916060 -60.499490 -7.125000 0.000000 0.000000 61.518997 -36.714253 75.689776 -14.236460 28.307680 -4.740277 -0.925182 1.782994 -7.546782 7.125000 0.000000 0.000000 
11.163293 17.157621 5.684126 -159.148341 -77.241388 164.978311 -10.846334 -24.264158 -17.607020 0.394275 15.864234 40.283561 4.439369 -28.301932 44.158376 8.072100 16.172000 52.821900 6.156293 18.733120 -25.983491 -2.528206 -16.103553 39.869882 -5.405291 15.215282 3.880372 -1.825700 8.493300 -24.222600 0.096598 6.656315 -4.063359 0.134380 2.626255 -11.865440 9.740497 -17.333205 3.278871 19.760700 -7.296600 2.446100 -61.901296 -19.822562 12.204019 132.378322 -44.414664 -102.649014 2.309267 -1.917120 -61.080383 -7.125000 0.000000 0.000000 60.371393 -35.841874 79.103274 -14.018477 27.885457 -4.592608 -1.053599 1.789939 -9.051804 7.125000 0.000000 0.000000 
11.144610 17.146456 5.631726 -158.742595 -78.248892 164.542738 -11.030294 -24.994896 -17.322636 0.340475 15.837432 40.121362 4.493178 -28.142865 44.648768 8.208300 16.270300 53.309600 5.448342 19.241002 -25.839066 -2.425034 -15.999707 39.484554 -5.623305 16.416467 4.173012 -1.751300 8.327500 -23.713400 -0.001321 7.062727 -4.053317 -0.077708 2.816636 -11.807801 9.859836 -17.797590 3.189116 19.832700 -7.508300 2.460600 -61.984962 -19.768691 11.446211 133.289441 -43.836835 -103.268587 2.347568 -1.924328 -61.226815 -7.125000 0.000000 0.000000 59.295673 -34.915615 82.305616 -13.821816 27.466190 -4.460854 -1.199550 1.793528 -10.465207 7.125000 0.000000 0.000000 
11.124601 17.142255 5.580762 -158.287451 -79.235677 164.051339 -11.223785 -25.754385 -16.979216 0.270681 15.785471 39.892008 4.567103 -27.890249 45.150261 8.328700 16.355800 53.738300 4.778504 19.742214 -25.619393 -2.309465 -15.878311 39.063078 -5.821758 17.657645 4.538132 -1.672400 8.147400 -23.162700 -0.096756 7.465882 -4.040421 -0.290537 3.006074 -11.745600 9.957996 -18.247027 3.102466 19.896600 -7.711900 2.469600 -62.086024 -19.535496 10.690123 134.067022 -43.367252 -103.777136 2.384520 -1.934552 -61.016357 -7.125000 0.000000 0.000000 58.297778 -33.970810 85.174109 -13.617881 27.031057 -4.333712 -1.356893 1.789721 -11.411276 7.125000 0.000000 0.000000 
11.103375 17.145019 5.530352 -157.551420 -80.202212 163.273966 -11.394600 -26.547124 -16.575738 0.188241 15.709413 39.601889 4.661970 -27.541807 45.671319 8.439200 16.433000 54.129700 4.182250 20.225100 -25.333327 -2.183639 -15.742882 38.616260 -5.998208 18.961428 4.964725 -1.598200 7.973500 -22.633600 -0.194425 7.868257 -4.026875 -0.540408 3.189541 -11.689625 10.044576 -18.689825 3.013740 19.958400 -7.912300 2.470400 -62.164388 -19.120140 9.937713 134.718894 -43.007763 -104.184900 2.419672 -1.946700 -60.560972 -7.125000 0.000000 0.000000 57.445267 -33.041618 87.553417 -13.370584 26.549942 -4.196154 -1.520048 1.775212 -11.575067 7.125000 0.000000 0.000000 
11.081487 17.154084 5.481157 -156.344472 -81.146991 162.022286 -11.538371 -27.375457 -16.118915 0.096667 15.612725 39.262274 4.767264 -27.140005 46.170001 8.532200 16.497100 54.457900 3.665256 20.697575 -24.987484 -2.048351 -15.597256 38.154691 -6.148137 20.372711 5.481795 -1.523800 7.794500 -22.091500 -0.293082 8.266039 -4.013201 -0.830123 3.364135 -11.640348 10.120088 -19.119886 2.924580 20.019900 -8.106700 2.464300 -62.205065 -18.530680 9.170557 135.249173 -42.759443 -104.499066 2.452592 -1.958481 -59.990250 -7.125000 0.000000 0.000000 56.724336 -32.141933 89.405782 -13.050694 25.992131 -4.030764 -1.677102 1.757662 -10.709237 7.125000 0.000000 0.000000 
